<?xml version="1.0" encoding="UTF-8"?>
<svg id="Layer_1" xmlns="http://www.w3.org/2000/svg" version="1.1" viewBox="0 0 272 740.8">
  <!-- Generator: Adobe Illustrator 29.1.0, SVG Export Plug-In . SVG Version: 2.1.0 Build 142)  -->
  <defs>
    <style>
      .st0 {
        fill: #231f20;
      }
    </style>
  </defs>
  <g>
    <path class="st0" d="M14.47,3.22h193.3v49.78h-17.96v-28.11H32.43v28.11H14.47V3.22Z"/>
    <path class="st0" d="M3.1,135.35h61.76v-1.36c-2.48-1.36-5.3-3.32-8.49-5.87-3.18-2.55-5.96-6.05-8.34-10.5-2.37-4.45-3.56-10.2-3.56-17.28,0-9.4,2.41-17.77,7.24-25.12,4.82-7.35,11.72-13.11,20.69-17.28,8.97-4.17,19.74-6.25,32.32-6.25s23.34,2.11,32.28,6.33c8.94,4.22,15.79,10.01,20.54,17.39,4.75,7.38,7.12,15.74,7.12,25.08,0,7.22-1.2,13.05-3.6,17.47-2.4,4.42-5.19,7.85-8.37,10.31-3.18,2.45-5.99,4.36-8.41,5.72v1.89h18.87v22.13H3.1v-22.66ZM63.8,105.35c0,6.52,1.73,12.04,5.19,16.56,3.46,4.52,8.27,7.96,14.44,10.31,6.16,2.35,13.34,3.52,21.52,3.52s15.15-1.16,21.22-3.49c6.06-2.32,10.79-5.73,14.17-10.23,3.38-4.5,5.08-10.05,5.08-16.67s-1.77-12.5-5.3-17.05c-3.54-4.55-8.36-7.97-14.47-10.27-6.11-2.3-13.01-3.45-20.69-3.45s-14.78,1.16-20.99,3.49c-6.21,2.32-11.13,5.77-14.74,10.34-3.61,4.57-5.42,10.22-5.42,16.94Z"/>
    <path class="st0" d="M207.77,222.07H14.47v-49.78h17.96v28.11h157.39v-28.11h17.96v49.78Z"/>
    <path class="st0" d="M95.02,319.35h68.12v22.73H46.75v-22.28h20.16v-1.21c-6.21-2.68-11.38-6.96-15.5-12.84-4.12-5.89-6.18-13.2-6.18-21.94,0-7.48,1.65-14.08,4.96-19.82,3.31-5.73,8.22-10.23,14.74-13.49,6.52-3.26,14.57-4.89,24.17-4.89h74.03v22.66h-71.3c-7.93,0-14.25,2.2-18.94,6.59-4.7,4.39-7.05,10.1-7.05,17.12,0,4.24,1.06,8.47,3.18,12.69,2.12,4.22,5.33,7.73,9.62,10.53,4.29,2.8,9.75,4.18,16.37,4.13Z"/>
    <path class="st0" d="M191.02,364.27v22.66h-110.1c-4.4,0-7.69.66-9.89,1.97-2.2,1.31-3.69,3.02-4.47,5.12-.78,2.1-1.17,4.38-1.17,6.86,0,1.82.13,3.41.38,4.77.25,1.36.45,2.43.61,3.18l-18.72,4.09c-.51-1.31-1.02-3.18-1.55-5.61-.53-2.43-.82-5.46-.87-9.09-.1-5.96.96-11.52,3.18-16.67,2.22-5.15,5.66-9.32,10.31-12.5,4.65-3.18,10.48-4.77,17.5-4.77h114.8ZM163.14,410.8h-18.19v-63.58h18.19v63.58Z"/>
    <path class="st0" d="M44.4,468.75c0-11.47,2.46-21.33,7.39-29.59s11.87-14.62,20.84-19.1c8.97-4.47,19.49-6.71,31.56-6.71s22.43,2.24,31.52,6.71,16.19,10.73,21.29,18.79c5.1,8.06,7.65,17.49,7.65,28.3,0,6.57-1.09,12.93-3.26,19.1-2.17,6.16-5.58,11.7-10.23,16.6-4.65,4.9-10.67,8.76-18.07,11.59-7.4,2.83-16.38,4.24-26.94,4.24h-8.03v-92.52h16.97v70.32c5.96,0,11.25-1.21,15.88-3.64,4.62-2.43,8.27-5.82,10.95-10.19,2.68-4.37,4.02-9.48,4.02-15.34,0-6.37-1.55-11.91-4.66-16.63-3.11-4.72-7.15-8.36-12.12-10.91-4.98-2.55-10.37-3.83-16.18-3.83h-13.26c-7.78,0-14.4,1.38-19.85,4.13-5.46,2.75-9.61,6.61-12.46,11.56-2.85,4.95-4.28,10.73-4.28,17.35,0,4.29.62,8.21,1.86,11.74,1.24,3.54,3.09,6.59,5.57,9.17,2.47,2.58,5.53,4.55,9.17,5.91l-3.86,21.44c-6.32-1.72-11.83-4.79-16.56-9.21-4.72-4.42-8.39-9.95-10.99-16.59-2.6-6.64-3.9-14.21-3.9-22.7Z"/>
    <path class="st0" d="M44.4,578.08c0-11.47,2.46-21.33,7.39-29.59s11.87-14.62,20.84-19.09c8.97-4.47,19.49-6.71,31.56-6.71s22.43,2.24,31.52,6.71c9.09,4.47,16.19,10.73,21.29,18.79,5.1,8.06,7.65,17.49,7.65,28.3,0,6.57-1.09,12.93-3.26,19.1-2.17,6.16-5.58,11.69-10.23,16.59-4.65,4.9-10.67,8.76-18.07,11.59-7.4,2.83-16.38,4.24-26.94,4.24h-8.03v-92.52h16.97v70.32c5.96,0,11.25-1.21,15.88-3.64,4.62-2.42,8.27-5.82,10.95-10.19,2.68-4.37,4.02-9.48,4.02-15.34,0-6.36-1.55-11.91-4.66-16.63-3.11-4.72-7.15-8.36-12.12-10.91-4.98-2.55-10.37-3.83-16.18-3.83h-13.26c-7.78,0-14.4,1.38-19.85,4.13-5.46,2.75-9.61,6.6-12.46,11.56-2.85,4.95-4.28,10.73-4.28,17.35,0,4.29.62,8.21,1.86,11.75,1.24,3.54,3.09,6.59,5.57,9.17,2.47,2.58,5.53,4.55,9.17,5.91l-3.86,21.44c-6.32-1.72-11.83-4.79-16.56-9.21-4.72-4.42-8.39-9.95-10.99-16.59-2.6-6.64-3.9-14.21-3.9-22.69Z"/>
    <path class="st0" d="M44.4,687.41c0-11.47,2.46-21.33,7.39-29.59s11.87-14.62,20.84-19.09c8.97-4.47,19.49-6.71,31.56-6.71s22.43,2.24,31.52,6.71c9.09,4.47,16.19,10.73,21.29,18.79,5.1,8.06,7.65,17.49,7.65,28.3,0,6.57-1.09,12.93-3.26,19.1-2.17,6.16-5.58,11.69-10.23,16.59-4.65,4.9-10.67,8.76-18.07,11.59-7.4,2.83-16.38,4.24-26.94,4.24h-8.03v-92.52h16.97v70.32c5.96,0,11.25-1.21,15.88-3.64,4.62-2.42,8.27-5.82,10.95-10.19,2.68-4.37,4.02-9.48,4.02-15.34,0-6.36-1.55-11.91-4.66-16.63-3.11-4.72-7.15-8.36-12.12-10.91-4.98-2.55-10.37-3.83-16.18-3.83h-13.26c-7.78,0-14.4,1.38-19.85,4.13-5.46,2.75-9.61,6.6-12.46,11.56-2.85,4.95-4.28,10.73-4.28,17.35,0,4.29.62,8.21,1.86,11.75,1.24,3.54,3.09,6.59,5.57,9.17,2.47,2.58,5.53,4.55,9.17,5.91l-3.86,21.44c-6.32-1.72-11.83-4.79-16.56-9.21-4.72-4.42-8.39-9.95-10.99-16.59-2.6-6.64-3.9-14.21-3.9-22.69Z"/>
  </g>
  <g>
    <path class="st0" d="M236.66,6.89h30.34v10.61c0,2.11-.36,3.86-1.09,5.23-.73,1.37-1.7,2.39-2.92,3.07-1.22.67-2.57,1.01-4.05,1.01-1.3,0-2.38-.23-3.23-.69-.85-.46-1.52-1.06-2.01-1.81-.49-.75-.86-1.55-1.1-2.42h-.3c-.06.93-.39,1.86-.98,2.8-.59.94-1.44,1.72-2.55,2.36-1.11.63-2.46.95-4.06.95s-2.89-.35-4.1-1.04c-1.21-.69-2.18-1.78-2.89-3.27s-1.07-3.43-1.07-5.82V6.89ZM239.92,10.56v7.29c0,2.4.47,4.11,1.4,5.12s2.07,1.52,3.4,1.52c1.03,0,1.98-.26,2.85-.79s1.58-1.27,2.1-2.24.79-2.11.79-3.44v-7.47h-10.55ZM253.67,10.56v6.81c0,1.11.22,2.11.65,3,.43.89,1.05,1.6,1.84,2.13.79.53,1.72.79,2.79.79,1.33,0,2.47-.46,3.4-1.39s1.4-2.4,1.4-4.41v-6.93h-10.07Z"/>
    <path class="st0" d="M236.13,37.12c0-1.44.27-2.75.82-3.93.55-1.18,1.34-2.11,2.38-2.8,1.04-.69,2.3-1.04,3.78-1.04,1.3,0,2.36.26,3.18.77.81.51,1.45,1.2,1.92,2.06.46.86.81,1.81,1.04,2.85.23,1.04.42,2.09.56,3.15.18,1.38.31,2.51.41,3.37.09.86.25,1.5.48,1.9s.62.6,1.19.6h.12c1.46,0,2.6-.4,3.41-1.19.81-.8,1.21-2,1.21-3.61s-.37-2.98-1.1-3.93c-.73-.95-1.51-1.61-2.34-2l1.19-3.32c1.38.59,2.46,1.39,3.24,2.38.77.99,1.32,2.08,1.63,3.26.31,1.18.47,2.34.47,3.49,0,.73-.09,1.57-.26,2.53s-.53,1.88-1.06,2.77-1.34,1.64-2.41,2.23-2.52.89-4.33.89h-14.99v-3.5h3.08v-.18c-.49-.24-1.02-.63-1.58-1.19-.56-.55-1.04-1.29-1.44-2.21-.39-.92-.59-2.04-.59-3.36ZM239.27,37.65c0,1.38.27,2.55.81,3.5.54.95,1.24,1.67,2.1,2.16.86.49,1.76.73,2.71.73h3.2c-.18-.15-.34-.47-.48-.97-.14-.5-.27-1.07-.37-1.72-.1-.65-.19-1.27-.27-1.88-.07-.61-.14-1.1-.19-1.47-.12-.91-.31-1.76-.57-2.54-.26-.78-.65-1.42-1.17-1.9s-1.22-.72-2.11-.72c-1.21,0-2.13.45-2.75,1.36-.62.9-.93,2.05-.93,3.44Z"/>
    <path class="st0" d="M236.66,51.29h30.34v3.5h-11.2v.3c.4.26.9.61,1.52,1.07.62.46,1.17,1.12,1.66,1.98.49.86.73,2.04.73,3.52,0,1.92-.48,3.6-1.44,5.07-.96,1.46-2.32,2.6-4.07,3.42s-3.83,1.23-6.22,1.23-4.5-.41-6.26-1.23-3.13-1.96-4.09-3.41-1.44-3.13-1.44-5.02c0-1.46.24-2.63.73-3.51s1.05-1.56,1.67-2.03c.63-.47,1.15-.84,1.56-1.1v-.42h-3.5v-3.38ZM248.04,54.73c-1.72,0-3.23.25-4.54.76-1.31.5-2.33,1.24-3.07,2.21-.74.97-1.1,2.15-1.1,3.56s.39,2.68,1.16,3.67,1.82,1.72,3.14,2.22c1.32.5,2.79.75,4.41.75s3.04-.24,4.33-.73c1.29-.49,2.31-1.22,3.07-2.21.76-.98,1.13-2.21,1.13-3.7s-.36-2.62-1.07-3.58-1.71-1.7-2.99-2.19c-1.28-.49-2.77-.74-4.47-.74Z"/>
    <path class="st0" d="M245.97,87.92h13.45v3.5h-22.75v-3.5h3.85v-.24c-1.16-.53-2.14-1.36-2.94-2.49-.81-1.13-1.21-2.55-1.21-4.27,0-1.42.31-2.69.94-3.79.63-1.11,1.57-1.98,2.84-2.61s2.87-.95,4.81-.95h14.46v3.5h-14.22c-1.66,0-2.98.47-3.97,1.4-.99.93-1.48,2.13-1.48,3.58,0,.87.22,1.76.67,2.66.44.9,1.13,1.66,2.04,2.28s2.09.93,3.51.93Z"/>
    <path class="st0" d="M264.87,96.23v3.5h-21.69c-.99,0-1.73.15-2.21.44s-.81.67-.98,1.13c-.16.46-.24.95-.24,1.46,0,.39.02.7.07.95.04.25.08.44.11.59l-3.14.71c-.09-.24-.18-.57-.27-.99-.09-.42-.14-.96-.14-1.61,0-.99.21-1.95.64-2.9.42-.94,1.07-1.72,1.94-2.34.87-.62,1.96-.93,3.29-.93h22.63ZM259.42,104.58h-2.96v-11.79h2.96v11.79Z"/>
    <path class="st0" d="M236.66,106.73h22.75v3.5h-22.75v-3.5ZM263.21,108.5c0-.68.23-1.27.7-1.76.46-.49,1.02-.73,1.67-.73s1.21.24,1.67.73c.46.49.7,1.07.7,1.76s-.23,1.27-.7,1.76c-.46.49-1.02.73-1.67.73s-1.21-.24-1.67-.73c-.46-.49-.7-1.07-.7-1.76Z"/>
    <path class="st0" d="M250.35,116.99h-13.69v-3.5h22.75v3.38h-3.55v.3c1.16.53,2.09,1.34,2.79,2.43.71,1.09,1.06,2.49,1.06,4.21,0,1.54-.31,2.89-.94,4.04-.63,1.16-1.58,2.05-2.84,2.7-1.27.64-2.87.96-4.81.96h-14.46v-3.5h14.22c1.79,0,3.18-.46,4.19-1.39,1-.93,1.5-2.2,1.5-3.82,0-1.12-.24-2.11-.73-2.98-.48-.87-1.19-1.56-2.12-2.07-.93-.5-2.05-.76-3.38-.76Z"/>
    <path class="st0" d="M267,173.34h-30.34v-3.67h30.34v3.67Z"/>
    <path class="st0" d="M259.42,195.69l-22.75-8.41v-3.56l22.75-8.41v3.79l-18.13,6.28v.24l18.13,6.28v3.79Z"/>
    <path class="st0" d="M236.13,203.16c0-1.44.27-2.75.82-3.93.55-1.18,1.34-2.11,2.38-2.8,1.04-.69,2.3-1.04,3.78-1.04,1.3,0,2.36.26,3.18.77.81.51,1.45,1.2,1.92,2.06.46.86.81,1.81,1.04,2.85.23,1.04.42,2.09.56,3.15.18,1.38.31,2.51.41,3.37.09.86.25,1.5.48,1.9s.62.6,1.19.6h.12c1.46,0,2.6-.4,3.41-1.19.81-.8,1.21-2,1.21-3.61s-.37-2.98-1.1-3.93c-.73-.95-1.51-1.61-2.34-2l1.19-3.32c1.38.59,2.46,1.39,3.24,2.38.77.99,1.32,2.08,1.63,3.26.31,1.18.47,2.34.47,3.49,0,.73-.09,1.57-.26,2.53s-.53,1.88-1.06,2.77-1.34,1.64-2.41,2.23-2.52.89-4.33.89h-14.99v-3.5h3.08v-.18c-.49-.24-1.02-.63-1.58-1.19-.56-.55-1.04-1.29-1.44-2.21-.39-.92-.59-2.04-.59-3.36ZM239.27,203.7c0,1.38.27,2.55.81,3.5.54.95,1.24,1.67,2.1,2.16.86.49,1.76.73,2.71.73h3.2c-.18-.15-.34-.47-.48-.97-.14-.5-.27-1.07-.37-1.72-.1-.65-.19-1.27-.27-1.88-.07-.61-.14-1.1-.19-1.47-.12-.91-.31-1.76-.57-2.54-.26-.78-.65-1.42-1.17-1.9s-1.22-.72-2.11-.72c-1.21,0-2.13.45-2.75,1.36-.62.9-.93,2.05-.93,3.44Z"/>
    <path class="st0" d="M250.35,220.36h-13.69v-3.5h22.75v3.38h-3.55v.3c1.16.53,2.09,1.34,2.79,2.43.71,1.09,1.06,2.49,1.06,4.21,0,1.54-.31,2.89-.94,4.04-.63,1.16-1.58,2.05-2.84,2.7-1.27.64-2.87.96-4.81.96h-14.46v-3.5h14.22c1.79,0,3.18-.46,4.19-1.39,1-.93,1.5-2.2,1.5-3.82,0-1.12-.24-2.11-.73-2.98-.48-.87-1.19-1.56-2.12-2.07-.93-.5-2.05-.76-3.38-.76Z"/>
  </g>
  <g>
    <path class="st0" d="M232.31,678.04c0-1.96.34-3.7,1.01-5.22.67-1.53,1.61-2.74,2.81-3.63,1.2-.89,2.59-1.38,4.18-1.46v3.73c-.98.08-1.82.42-2.53,1.01-.71.59-1.25,1.37-1.64,2.33s-.58,2.02-.58,3.18c0,1.3.23,2.46.68,3.47.45,1.01,1.09,1.8,1.9,2.37.81.57,1.75.86,2.81.86s2.1-.28,2.96-.83c.85-.55,1.52-1.36,2.01-2.43.48-1.07.73-2.37.73-3.91v-2.43h3.26v2.43c0,1.21.22,2.26.65,3.18.43.91,1.05,1.63,1.84,2.15s1.72.78,2.79.78,1.92-.23,2.68-.68c.76-.46,1.35-1.09,1.78-1.92.42-.82.64-1.79.64-2.91,0-1.05-.19-2.03-.57-2.96-.38-.92-.93-1.68-1.64-2.26-.72-.58-1.58-.9-2.58-.95v-3.56c1.59.06,2.98.54,4.19,1.44,1.2.9,2.14,2.08,2.81,3.53.67,1.46,1.01,3.06,1.01,4.81,0,1.88-.38,3.49-1.13,4.83-.76,1.34-1.75,2.38-2.98,3.1-1.23.72-2.57,1.08-4,1.08-1.71,0-3.17-.45-4.37-1.34-1.2-.89-2.04-2.11-2.5-3.64h-.24c-.32,1.92-1.13,3.41-2.44,4.49-1.31,1.08-2.93,1.62-4.85,1.62-1.65,0-3.13-.45-4.44-1.34s-2.34-2.11-3.09-3.65c-.75-1.54-1.13-3.29-1.13-5.26Z"/>
    <path class="st0" d="M232.31,701.45c0-1.96.34-3.7,1.01-5.22.67-1.53,1.61-2.74,2.81-3.63,1.2-.89,2.59-1.38,4.18-1.46v3.73c-.98.08-1.82.42-2.53,1.01-.71.59-1.25,1.37-1.64,2.33s-.58,2.02-.58,3.18c0,1.3.23,2.46.68,3.47.45,1.01,1.09,1.8,1.9,2.37.81.57,1.75.86,2.81.86s2.1-.28,2.96-.83c.85-.55,1.52-1.36,2.01-2.43.48-1.07.73-2.37.73-3.91v-2.43h3.26v2.43c0,1.21.22,2.26.65,3.18.43.91,1.05,1.63,1.84,2.15s1.72.78,2.79.78,1.92-.23,2.68-.68c.76-.46,1.35-1.09,1.78-1.92.42-.82.64-1.79.64-2.91,0-1.05-.19-2.03-.57-2.96-.38-.92-.93-1.68-1.64-2.26-.72-.58-1.58-.9-2.58-.95v-3.56c1.59.06,2.98.54,4.19,1.44,1.2.9,2.14,2.08,2.81,3.53.67,1.46,1.01,3.06,1.01,4.81,0,1.88-.38,3.49-1.13,4.83-.76,1.34-1.75,2.38-2.98,3.1-1.23.72-2.57,1.08-4,1.08-1.71,0-3.17-.45-4.37-1.34-1.2-.89-2.04-2.11-2.5-3.64h-.24c-.32,1.92-1.13,3.41-2.44,4.49-1.31,1.08-2.93,1.62-4.85,1.62-1.65,0-3.13-.45-4.44-1.34s-2.34-2.11-3.09-3.65c-.75-1.54-1.13-3.29-1.13-5.26Z"/>
    <path class="st0" d="M232.31,724.87c0-1.96.34-3.7,1.01-5.22.67-1.53,1.61-2.74,2.81-3.63,1.2-.89,2.59-1.38,4.18-1.46v3.73c-.98.08-1.82.41-2.53,1.01s-1.25,1.37-1.64,2.33c-.39.96-.58,2.02-.58,3.18,0,1.3.23,2.46.68,3.47.45,1.01,1.09,1.8,1.9,2.37.81.57,1.75.86,2.81.86s2.1-.28,2.96-.83c.85-.55,1.52-1.36,2.01-2.43s.73-2.37.73-3.91v-2.43h3.26v2.43c0,1.21.22,2.26.65,3.18.43.91,1.05,1.63,1.84,2.15.79.52,1.72.78,2.79.78s1.92-.23,2.68-.68c.76-.45,1.35-1.09,1.78-1.92.42-.83.64-1.79.64-2.91,0-1.05-.19-2.03-.57-2.96-.38-.92-.93-1.68-1.64-2.26-.72-.58-1.58-.9-2.58-.95v-3.55c1.59.06,2.98.54,4.19,1.44,1.2.9,2.14,2.08,2.81,3.53.67,1.46,1.01,3.06,1.01,4.81,0,1.88-.38,3.49-1.13,4.83-.76,1.34-1.75,2.38-2.98,3.1-1.23.72-2.57,1.08-4,1.08-1.71,0-3.17-.45-4.37-1.34-1.2-.89-2.04-2.11-2.5-3.64h-.24c-.32,1.92-1.13,3.41-2.44,4.49-1.31,1.08-2.93,1.61-4.85,1.61-1.65,0-3.13-.45-4.44-1.34s-2.34-2.11-3.09-3.65c-.75-1.54-1.13-3.29-1.13-5.26Z"/>
  </g>
  <g>
    <path class="st0" d="M268.42,415l-36.32-9.78v-3.2l36.32,9.78v3.2Z"/>
    <path class="st0" d="M268.42,426.75l-36.32-9.78v-3.2l36.32,9.78v3.2Z"/>
  </g>
</svg>